<mxfile host="app.diagrams.net" modified="2024-03-29T21:07:04.303Z" agent="Mozilla/5.0 (Macintosh; Intel Mac OS X 10_15_7) AppleWebKit/537.36 (KHTML, like Gecko) Chrome/123.0.0.0 Safari/537.36" etag="4y5da9FvJC3TRkMNfSxl" version="24.2.0" type="github">
  <diagram name="Page-1" id="znTmQqUVOChbo05pydBc">
    <mxGraphModel dx="794" dy="506" grid="1" gridSize="10" guides="1" tooltips="1" connect="1" arrows="1" fold="1" page="1" pageScale="1" pageWidth="850" pageHeight="1100" math="0" shadow="0">
      <root>
        <mxCell id="0" />
        <mxCell id="1" parent="0" />
        <mxCell id="vUsv1Ptr0vhTZ9txSlE0-36" value="" style="rounded=0;whiteSpace=wrap;html=1;" parent="1" vertex="1">
          <mxGeometry x="210" y="278" width="150" height="80" as="geometry" />
        </mxCell>
        <mxCell id="vUsv1Ptr0vhTZ9txSlE0-5" value="View" style="rounded=0;whiteSpace=wrap;html=1;" parent="1" vertex="1">
          <mxGeometry x="160" y="118" width="80" height="30" as="geometry" />
        </mxCell>
        <mxCell id="vUsv1Ptr0vhTZ9txSlE0-22" style="edgeStyle=orthogonalEdgeStyle;rounded=0;orthogonalLoop=1;jettySize=auto;html=1;" parent="1" source="vUsv1Ptr0vhTZ9txSlE0-6" target="vUsv1Ptr0vhTZ9txSlE0-11" edge="1">
          <mxGeometry relative="1" as="geometry">
            <Array as="points">
              <mxPoint x="290" y="208" />
              <mxPoint x="290" y="208" />
            </Array>
          </mxGeometry>
        </mxCell>
        <mxCell id="vUsv1Ptr0vhTZ9txSlE0-6" value="" style="rounded=0;whiteSpace=wrap;html=1;" parent="1" vertex="1">
          <mxGeometry x="190" y="178" width="20" height="350" as="geometry" />
        </mxCell>
        <mxCell id="vUsv1Ptr0vhTZ9txSlE0-9" value="" style="endArrow=none;html=1;rounded=0;exitX=0.5;exitY=0;exitDx=0;exitDy=0;entryX=0.5;entryY=1;entryDx=0;entryDy=0;" parent="1" source="vUsv1Ptr0vhTZ9txSlE0-6" target="vUsv1Ptr0vhTZ9txSlE0-5" edge="1">
          <mxGeometry width="50" height="50" relative="1" as="geometry">
            <mxPoint x="175" y="188" as="sourcePoint" />
            <mxPoint x="225" y="138" as="targetPoint" />
          </mxGeometry>
        </mxCell>
        <mxCell id="vUsv1Ptr0vhTZ9txSlE0-10" value="Control" style="rounded=0;whiteSpace=wrap;html=1;" parent="1" vertex="1">
          <mxGeometry x="330" y="118" width="80" height="30" as="geometry" />
        </mxCell>
        <mxCell id="vUsv1Ptr0vhTZ9txSlE0-24" style="edgeStyle=orthogonalEdgeStyle;rounded=0;orthogonalLoop=1;jettySize=auto;html=1;" parent="1" edge="1">
          <mxGeometry relative="1" as="geometry">
            <mxPoint x="550" y="198" as="targetPoint" />
            <mxPoint x="380" y="198.02702702702697" as="sourcePoint" />
          </mxGeometry>
        </mxCell>
        <mxCell id="vUsv1Ptr0vhTZ9txSlE0-31" style="edgeStyle=orthogonalEdgeStyle;rounded=0;orthogonalLoop=1;jettySize=auto;html=1;entryX=0.969;entryY=0.571;entryDx=0;entryDy=0;entryPerimeter=0;" parent="1" edge="1">
          <mxGeometry relative="1" as="geometry">
            <mxPoint x="380" y="267.8499999999999" as="targetPoint" />
            <mxPoint x="380.62" y="248" as="sourcePoint" />
            <Array as="points">
              <mxPoint x="400.62" y="248" />
              <mxPoint x="400.62" y="268" />
            </Array>
          </mxGeometry>
        </mxCell>
        <mxCell id="vUsv1Ptr0vhTZ9txSlE0-11" value="" style="rounded=0;whiteSpace=wrap;html=1;" parent="1" vertex="1">
          <mxGeometry x="360" y="178" width="20" height="350" as="geometry" />
        </mxCell>
        <mxCell id="vUsv1Ptr0vhTZ9txSlE0-51" style="edgeStyle=orthogonalEdgeStyle;rounded=0;orthogonalLoop=1;jettySize=auto;html=1;" parent="1" source="vUsv1Ptr0vhTZ9txSlE0-11" edge="1">
          <mxGeometry relative="1" as="geometry">
            <mxPoint x="210" y="338" as="targetPoint" />
            <Array as="points">
              <mxPoint x="210" y="338" />
            </Array>
          </mxGeometry>
        </mxCell>
        <mxCell id="vUsv1Ptr0vhTZ9txSlE0-12" value="" style="endArrow=none;html=1;rounded=0;exitX=0.5;exitY=0;exitDx=0;exitDy=0;entryX=0.5;entryY=1;entryDx=0;entryDy=0;" parent="1" source="vUsv1Ptr0vhTZ9txSlE0-11" target="vUsv1Ptr0vhTZ9txSlE0-10" edge="1">
          <mxGeometry width="50" height="50" relative="1" as="geometry">
            <mxPoint x="345" y="188" as="sourcePoint" />
            <mxPoint x="395" y="138" as="targetPoint" />
          </mxGeometry>
        </mxCell>
        <mxCell id="vUsv1Ptr0vhTZ9txSlE0-13" value="DB" style="rounded=0;whiteSpace=wrap;html=1;" parent="1" vertex="1">
          <mxGeometry x="520" y="118" width="80" height="30" as="geometry" />
        </mxCell>
        <mxCell id="vUsv1Ptr0vhTZ9txSlE0-14" value="" style="rounded=0;whiteSpace=wrap;html=1;" parent="1" vertex="1">
          <mxGeometry x="550" y="178" width="20" height="70" as="geometry" />
        </mxCell>
        <mxCell id="vUsv1Ptr0vhTZ9txSlE0-15" value="" style="endArrow=none;html=1;rounded=0;exitX=0.5;exitY=0;exitDx=0;exitDy=0;entryX=0.5;entryY=1;entryDx=0;entryDy=0;" parent="1" source="vUsv1Ptr0vhTZ9txSlE0-14" target="vUsv1Ptr0vhTZ9txSlE0-13" edge="1">
          <mxGeometry width="50" height="50" relative="1" as="geometry">
            <mxPoint x="535" y="188" as="sourcePoint" />
            <mxPoint x="585" y="138" as="targetPoint" />
          </mxGeometry>
        </mxCell>
        <mxCell id="vUsv1Ptr0vhTZ9txSlE0-16" value="Actor" style="shape=umlActor;verticalLabelPosition=bottom;verticalAlign=top;html=1;outlineConnect=0;" parent="1" vertex="1">
          <mxGeometry x="40" y="178" width="30" height="60" as="geometry" />
        </mxCell>
        <mxCell id="vUsv1Ptr0vhTZ9txSlE0-18" style="edgeStyle=orthogonalEdgeStyle;rounded=0;orthogonalLoop=1;jettySize=auto;html=1;entryX=0;entryY=0.086;entryDx=0;entryDy=0;entryPerimeter=0;" parent="1" source="vUsv1Ptr0vhTZ9txSlE0-16" target="vUsv1Ptr0vhTZ9txSlE0-6" edge="1">
          <mxGeometry relative="1" as="geometry" />
        </mxCell>
        <mxCell id="vUsv1Ptr0vhTZ9txSlE0-19" value="&lt;font style=&quot;font-size: 10px;&quot;&gt;Inputs a capital&lt;/font&gt;&lt;div&gt;&lt;font style=&quot;font-size: 10px;&quot;&gt;&amp;nbsp;city name&lt;/font&gt;&lt;/div&gt;" style="text;html=1;align=center;verticalAlign=middle;resizable=0;points=[];autosize=1;strokeColor=none;fillColor=none;" parent="1" vertex="1">
          <mxGeometry x="90" y="168" width="90" height="40" as="geometry" />
        </mxCell>
        <mxCell id="vUsv1Ptr0vhTZ9txSlE0-23" value="Post/guessCapital" style="text;html=1;align=center;verticalAlign=middle;resizable=0;points=[];autosize=1;strokeColor=none;fillColor=none;" parent="1" vertex="1">
          <mxGeometry x="210" y="173" width="120" height="30" as="geometry" />
        </mxCell>
        <mxCell id="vUsv1Ptr0vhTZ9txSlE0-25" value="validate(answer, county)" style="text;html=1;align=center;verticalAlign=middle;resizable=0;points=[];autosize=1;strokeColor=none;fillColor=none;" parent="1" vertex="1">
          <mxGeometry x="390" y="168" width="150" height="30" as="geometry" />
        </mxCell>
        <mxCell id="vUsv1Ptr0vhTZ9txSlE0-26" style="edgeStyle=orthogonalEdgeStyle;rounded=0;orthogonalLoop=1;jettySize=auto;html=1;entryX=0.942;entryY=0.101;entryDx=0;entryDy=0;entryPerimeter=0;" parent="1" edge="1">
          <mxGeometry relative="1" as="geometry">
            <mxPoint x="550.58" y="237.99702702702703" as="sourcePoint" />
            <mxPoint x="379.42" y="238.31999999999996" as="targetPoint" />
          </mxGeometry>
        </mxCell>
        <mxCell id="vUsv1Ptr0vhTZ9txSlE0-27" value="Country, capital" style="text;html=1;align=center;verticalAlign=middle;resizable=0;points=[];autosize=1;strokeColor=none;fillColor=none;" parent="1" vertex="1">
          <mxGeometry x="410" y="208" width="110" height="30" as="geometry" />
        </mxCell>
        <mxCell id="vUsv1Ptr0vhTZ9txSlE0-29" value="" style="endArrow=none;html=1;rounded=0;" parent="1" edge="1">
          <mxGeometry width="50" height="50" relative="1" as="geometry">
            <mxPoint x="360" y="258" as="sourcePoint" />
            <mxPoint x="380" y="258" as="targetPoint" />
            <Array as="points">
              <mxPoint x="380" y="258" />
            </Array>
          </mxGeometry>
        </mxCell>
        <mxCell id="vUsv1Ptr0vhTZ9txSlE0-32" value="&lt;font style=&quot;font-size: 10px;&quot;&gt;verify&amp;nbsp;&lt;/font&gt;&lt;div&gt;&lt;font style=&quot;font-size: 10px;&quot;&gt;answer&lt;/font&gt;&lt;/div&gt;" style="text;html=1;align=center;verticalAlign=middle;resizable=0;points=[];autosize=1;strokeColor=none;fillColor=none;" parent="1" vertex="1">
          <mxGeometry x="390" y="238" width="60" height="40" as="geometry" />
        </mxCell>
        <mxCell id="vUsv1Ptr0vhTZ9txSlE0-33" value="" style="whiteSpace=wrap;html=1;aspect=fixed;" parent="1" vertex="1">
          <mxGeometry x="380" y="278" width="80" height="80" as="geometry" />
        </mxCell>
        <mxCell id="vUsv1Ptr0vhTZ9txSlE0-34" value="" style="whiteSpace=wrap;html=1;aspect=fixed;" parent="1" vertex="1">
          <mxGeometry x="380" y="398" width="80" height="80" as="geometry" />
        </mxCell>
        <mxCell id="vUsv1Ptr0vhTZ9txSlE0-37" value="" style="rounded=0;whiteSpace=wrap;html=1;" parent="1" vertex="1">
          <mxGeometry x="210" y="398" width="150" height="80" as="geometry" />
        </mxCell>
        <mxCell id="vUsv1Ptr0vhTZ9txSlE0-38" value="" style="rounded=0;whiteSpace=wrap;html=1;" parent="1" vertex="1">
          <mxGeometry x="90" y="278" width="100" height="80" as="geometry" />
        </mxCell>
        <mxCell id="vUsv1Ptr0vhTZ9txSlE0-43" value="" style="endArrow=none;html=1;rounded=0;entryX=1;entryY=0.25;entryDx=0;entryDy=0;" parent="1" target="vUsv1Ptr0vhTZ9txSlE0-38" edge="1">
          <mxGeometry width="50" height="50" relative="1" as="geometry">
            <mxPoint x="90" y="298" as="sourcePoint" />
            <mxPoint x="180" y="298" as="targetPoint" />
          </mxGeometry>
        </mxCell>
        <mxCell id="vUsv1Ptr0vhTZ9txSlE0-44" value="" style="rounded=0;whiteSpace=wrap;html=1;" parent="1" vertex="1">
          <mxGeometry x="90" y="398" width="100" height="80" as="geometry" />
        </mxCell>
        <mxCell id="vUsv1Ptr0vhTZ9txSlE0-45" value="" style="endArrow=none;html=1;rounded=0;entryX=1;entryY=0.25;entryDx=0;entryDy=0;" parent="1" target="vUsv1Ptr0vhTZ9txSlE0-44" edge="1">
          <mxGeometry width="50" height="50" relative="1" as="geometry">
            <mxPoint x="90" y="418" as="sourcePoint" />
            <mxPoint x="180" y="418" as="targetPoint" />
          </mxGeometry>
        </mxCell>
        <mxCell id="vUsv1Ptr0vhTZ9txSlE0-46" value="Success" style="text;html=1;align=center;verticalAlign=middle;resizable=0;points=[];autosize=1;strokeColor=none;fillColor=none;" parent="1" vertex="1">
          <mxGeometry x="90" y="278" width="70" height="30" as="geometry" />
        </mxCell>
        <mxCell id="vUsv1Ptr0vhTZ9txSlE0-47" value="Failure" style="text;html=1;align=center;verticalAlign=middle;resizable=0;points=[];autosize=1;strokeColor=none;fillColor=none;" parent="1" vertex="1">
          <mxGeometry x="95" y="398" width="60" height="30" as="geometry" />
        </mxCell>
        <mxCell id="vUsv1Ptr0vhTZ9txSlE0-52" style="edgeStyle=orthogonalEdgeStyle;rounded=0;orthogonalLoop=1;jettySize=auto;html=1;" parent="1" edge="1">
          <mxGeometry relative="1" as="geometry">
            <mxPoint x="360" y="458" as="sourcePoint" />
            <mxPoint x="210" y="458" as="targetPoint" />
            <Array as="points">
              <mxPoint x="210" y="458" />
            </Array>
          </mxGeometry>
        </mxCell>
        <mxCell id="vUsv1Ptr0vhTZ9txSlE0-53" value="201 OK" style="text;html=1;align=center;verticalAlign=middle;resizable=0;points=[];autosize=1;strokeColor=none;fillColor=none;" parent="1" vertex="1">
          <mxGeometry x="240" y="308" width="60" height="30" as="geometry" />
        </mxCell>
        <mxCell id="vUsv1Ptr0vhTZ9txSlE0-54" value="400 Bad request" style="text;html=1;align=center;verticalAlign=middle;resizable=0;points=[];autosize=1;strokeColor=none;fillColor=none;" parent="1" vertex="1">
          <mxGeometry x="220" y="428" width="110" height="30" as="geometry" />
        </mxCell>
      </root>
    </mxGraphModel>
  </diagram>
</mxfile>
